<?xml version="1.0" encoding="utf-8" standalone="no"?>
<!DOCTYPE svg PUBLIC "-//W3C//DTD SVG 1.1//EN"
  "http://www.w3.org/Graphics/SVG/1.1/DTD/svg11.dtd">
<svg xmlns:xlink="http://www.w3.org/1999/xlink" width="422.768281pt" height="348.806906pt" viewBox="0 0 422.768281 348.806906" xmlns="http://www.w3.org/2000/svg" version="1.1">
 <metadata>
  <rdf:RDF xmlns:dc="http://purl.org/dc/elements/1.1/" xmlns:cc="http://creativecommons.org/ns#" xmlns:rdf="http://www.w3.org/1999/02/22-rdf-syntax-ns#">
   <cc:Work>
    <dc:type rdf:resource="http://purl.org/dc/dcmitype/StillImage"/>
    <dc:date>2026-08-20T06:36:21.354590</dc:date>
    <dc:format>image/svg+xml</dc:format>
    <dc:creator>
     <cc:Agent>
      <dc:title>Matplotlib v3.11.1, https://matplotlib.org/</dc:title>
     </cc:Agent>
    </dc:creator>
   </cc:Work>
  </rdf:RDF>
 </metadata>
 <defs>
  <style type="text/css">*{stroke-linejoin: round; stroke-linecap: butt}</style>
 </defs>
 <g id="figure_1">
  <g id="patch_1">
   <path d="M 0 348.806906 
L 422.768281 348.806906 
L 422.768281 0 
L 0 0 
z
" style="fill: #ffffff"/>
  </g>
  <g id="axes_1">
   <g id="patch_2">
    <path d="M 47.288281 310.606125 
L 415.568281 310.606125 
L 415.568281 22.318125 
L 47.288281 22.318125 
z
" style="fill: #ffffff"/>
   </g>
   <g id="PathCollection_1">
    <path d="M 110.25504 264.528944 
C 111.17373 264.528944 112.054917 264.163945 112.704529 263.514332 
C 113.354142 262.86472 113.719141 261.983533 113.719141 261.064843 
C 113.719141 260.146152 113.354142 259.264965 112.704529 258.615353 
C 112.054917 257.965741 111.17373 257.600741 110.25504 257.600741 
C 109.336349 257.600741 108.455162 257.965741 107.80555 258.615353 
C 107.155938 259.264965 106.790938 260.146152 106.790938 261.064843 
C 106.790938 261.983533 107.155938 262.86472 107.80555 263.514332 
C 108.455162 264.163945 109.336349 264.528944 110.25504 264.528944 
z
" clip-path="url(#p381291437f)" style="fill: #1f77b4; stroke: #ffffff; stroke-width: 0.554256"/>
    <path d="M 109.049321 265.590658 
C 109.968012 265.590658 110.849199 265.225659 111.498811 264.576046 
C 112.148423 263.926434 112.513423 263.045247 112.513423 262.126557 
C 112.513423 261.207866 112.148423 260.326679 111.498811 259.677067 
C 110.849199 259.027455 109.968012 258.662455 109.049321 258.662455 
C 108.130631 258.662455 107.249444 259.027455 106.599831 259.677067 
C 105.950219 260.326679 105.58522 261.207866 105.58522 262.126557 
C 105.58522 263.045247 105.950219 263.926434 106.599831 264.576046 
C 107.249444 265.225659 108.130631 265.590658 109.049321 265.590658 
z
" clip-path="url(#p381291437f)" style="fill: #1f77b4; stroke: #ffffff; stroke-width: 0.554256"/>
    <path d="M 106.268786 267.653989 
C 107.187477 267.653989 108.068664 267.288989 108.718276 266.639377 
C 109.367888 265.989765 109.732888 265.108578 109.732888 264.189887 
C 109.732888 263.271197 109.367888 262.39001 108.718276 261.740398 
C 108.068664 261.090785 107.187477 260.725786 106.268786 260.725786 
C 105.350096 260.725786 104.468909 261.090785 103.819297 261.740398 
C 103.169684 262.39001 102.804685 263.271197 102.804685 264.189887 
C 102.804685 265.108578 103.169684 265.989765 103.819297 266.639377 
C 104.468909 267.288989 105.350096 267.653989 106.268786 267.653989 
z
" clip-path="url(#p381291437f)" style="fill: #1f77b4; stroke: #ffffff; stroke-width: 0.554256"/>
    <path d="M 79.501834 288.804286 
C 80.420524 288.804286 81.301711 288.439286 81.951324 287.789674 
C 82.600936 287.140062 82.965935 286.258875 82.965935 285.340184 
C 82.965935 284.421494 82.600936 283.540307 81.951324 282.890694 
C 81.301711 282.241082 80.420524 281.876083 79.501834 281.876083 
C 78.583143 281.876083 77.701956 282.241082 77.052344 282.890694 
C 76.402732 283.540307 76.037732 284.421494 76.037732 285.340184 
C 76.037732 286.258875 76.402732 287.140062 77.052344 287.789674 
C 77.701956 288.439286 78.583143 288.804286 79.501834 288.804286 
z
" clip-path="url(#p381291437f)" style="fill: #1f77b4; stroke: #ffffff; stroke-width: 0.554256"/>
    <path d="M 80.466409 287.956764 
C 81.385099 287.956764 82.266286 287.591764 82.915898 286.942152 
C 83.565511 286.29254 83.93051 285.411353 83.93051 284.492662 
C 83.93051 283.573972 83.565511 282.692785 82.915898 282.043172 
C 82.266286 281.39356 81.385099 281.028561 80.466409 281.028561 
C 79.547718 281.028561 78.666531 281.39356 78.016919 282.043172 
C 77.367307 282.692785 77.002307 283.573972 77.002307 284.492662 
C 77.002307 285.411353 77.367307 286.29254 78.016919 286.942152 
C 78.666531 287.591764 79.547718 287.956764 80.466409 287.956764 
z
" clip-path="url(#p381291437f)" style="fill: #1f77b4; stroke: #ffffff; stroke-width: 0.554256"/>
    <path d="M 79.551047 288.698731 
C 80.469737 288.698731 81.350924 288.333731 82.000537 287.684119 
C 82.650149 287.034507 83.015148 286.15332 83.015148 285.234629 
C 83.015148 284.315939 82.650149 283.434752 82.000537 282.785139 
C 81.350924 282.135527 80.469737 281.770528 79.551047 281.770528 
C 78.632356 281.770528 77.751169 282.135527 77.101557 282.785139 
C 76.451945 283.434752 76.086945 284.315939 76.086945 285.234629 
C 76.086945 286.15332 76.451945 287.034507 77.101557 287.684119 
C 77.751169 288.333731 78.632356 288.698731 79.551047 288.698731 
z
" clip-path="url(#p381291437f)" style="fill: #1f77b4; stroke: #ffffff; stroke-width: 0.554256"/>
    <path d="M 64.244818 300.701183 
C 65.163509 300.701183 66.044696 300.336184 66.694308 299.686571 
C 67.34392 299.036959 67.70892 298.155772 67.70892 297.237082 
C 67.70892 296.318391 67.34392 295.437204 66.694308 294.787592 
C 66.044696 294.13798 65.163509 293.77298 64.244818 293.77298 
C 63.326128 293.77298 62.444941 294.13798 61.795329 294.787592 
C 61.145716 295.437204 60.780717 296.318391 60.780717 297.237082 
C 60.780717 298.155772 61.145716 299.036959 61.795329 299.686571 
C 62.444941 300.336184 63.326128 300.701183 64.244818 300.701183 
z
" clip-path="url(#p381291437f)" style="fill: #1f77b4; stroke: #ffffff; stroke-width: 0.554256"/>
    <path d="M 64.088321 300.966227 
C 65.007012 300.966227 65.888199 300.601227 66.537811 299.951615 
C 67.187423 299.302002 67.552423 298.420815 67.552423 297.502125 
C 67.552423 296.583435 67.187423 295.702248 66.537811 295.052635 
C 65.888199 294.403023 65.007012 294.038023 64.088321 294.038023 
C 63.169631 294.038023 62.288444 294.403023 61.638831 295.052635 
C 60.989219 295.702248 60.624219 296.583435 60.624219 297.502125 
C 60.624219 298.420815 60.989219 299.302002 61.638831 299.951615 
C 62.288444 300.601227 63.169631 300.966227 64.088321 300.966227 
z
" clip-path="url(#p381291437f)" style="fill: #1f77b4; stroke: #ffffff; stroke-width: 0.554256"/>
    <path d="M 64.443639 300.520892 
C 65.362329 300.520892 66.243516 300.155893 66.893129 299.50628 
C 67.542741 298.856668 67.907741 297.975481 67.907741 297.056791 
C 67.907741 296.1381 67.542741 295.256913 66.893129 294.607301 
C 66.243516 293.957689 65.362329 293.592689 64.443639 293.592689 
C 63.524949 293.592689 62.643762 293.957689 61.994149 294.607301 
C 61.344537 295.256913 60.979537 296.1381 60.979537 297.056791 
C 60.979537 297.975481 61.344537 298.856668 61.994149 299.50628 
C 62.643762 300.155893 63.524949 300.520892 64.443639 300.520892 
z
" clip-path="url(#p381291437f)" style="fill: #1f77b4; stroke: #ffffff; stroke-width: 0.554256"/>
    <path d="M 207.263959 187.250347 
L 208.99601 185.518296 
L 210.728061 187.250347 
L 212.460112 185.518296 
L 210.728061 183.786245 
L 212.460112 182.054194 
L 210.728061 180.322144 
L 208.99601 182.054194 
L 207.263959 180.322144 
L 205.531908 182.054194 
L 207.263959 183.786245 
L 205.531908 185.518296 
z
" clip-path="url(#p381291437f)" style="fill: #1f77b4; stroke: #ffffff; stroke-width: 0.554256"/>
    <path d="M 204.780671 189.060192 
L 206.512722 187.328141 
L 208.244773 189.060192 
L 209.976823 187.328141 
L 208.244773 185.59609 
L 209.976823 183.864039 
L 208.244773 182.131988 
L 206.512722 183.864039 
L 204.780671 182.131988 
L 203.04862 183.864039 
L 204.780671 185.59609 
L 203.04862 187.328141 
z
" clip-path="url(#p381291437f)" style="fill: #1f77b4; stroke: #ffffff; stroke-width: 0.554256"/>
    <path d="M 206.932264 187.686435 
L 208.664314 185.954385 
L 210.396365 187.686435 
L 212.128416 185.954385 
L 210.396365 184.222334 
L 212.128416 182.490283 
L 210.396365 180.758232 
L 208.664314 182.490283 
L 206.932264 180.758232 
L 205.200213 182.490283 
L 206.932264 184.222334 
L 205.200213 185.954385 
z
" clip-path="url(#p381291437f)" style="fill: #1f77b4; stroke: #ffffff; stroke-width: 0.554256"/>
    <path d="M 127.809565 249.859109 
L 129.541616 248.127058 
L 131.273667 249.859109 
L 133.005717 248.127058 
L 131.273667 246.395007 
L 133.005717 244.662956 
L 131.273667 242.930906 
L 129.541616 244.662956 
L 127.809565 242.930906 
L 126.077514 244.662956 
L 127.809565 246.395007 
L 126.077514 248.127058 
z
" clip-path="url(#p381291437f)" style="fill: #1f77b4; stroke: #ffffff; stroke-width: 0.554256"/>
    <path d="M 127.271175 249.939238 
L 129.003226 248.207187 
L 130.735276 249.939238 
L 132.467327 248.207187 
L 130.735276 246.475137 
L 132.467327 244.743086 
L 130.735276 243.011035 
L 129.003226 244.743086 
L 127.271175 243.011035 
L 125.539124 244.743086 
L 127.271175 246.475137 
L 125.539124 248.207187 
z
" clip-path="url(#p381291437f)" style="fill: #1f77b4; stroke: #ffffff; stroke-width: 0.554256"/>
    <path d="M 128.019212 249.301285 
L 129.751263 247.569234 
L 131.483314 249.301285 
L 133.215365 247.569234 
L 131.483314 245.837184 
L 133.215365 244.105133 
L 131.483314 242.373082 
L 129.751263 244.105133 
L 128.019212 242.373082 
L 126.287162 244.105133 
L 128.019212 245.837184 
L 126.287162 247.569234 
z
" clip-path="url(#p381291437f)" style="fill: #1f77b4; stroke: #ffffff; stroke-width: 0.554256"/>
    <path d="M 105.9147 266.572243 
L 107.646751 264.840192 
L 109.378801 266.572243 
L 111.110852 264.840192 
L 109.378801 263.108141 
L 111.110852 261.37609 
L 109.378801 259.644039 
L 107.646751 261.37609 
L 105.9147 259.644039 
L 104.182649 261.37609 
L 105.9147 263.108141 
L 104.182649 264.840192 
z
" clip-path="url(#p381291437f)" style="fill: #1f77b4; stroke: #ffffff; stroke-width: 0.554256"/>
    <path d="M 104.997369 267.654759 
L 106.72942 265.922709 
L 108.461471 267.654759 
L 110.193522 265.922709 
L 108.461471 264.190658 
L 110.193522 262.458607 
L 108.461471 260.726556 
L 106.72942 262.458607 
L 104.997369 260.726556 
L 103.265319 262.458607 
L 104.997369 264.190658 
L 103.265319 265.922709 
z
" clip-path="url(#p381291437f)" style="fill: #1f77b4; stroke: #ffffff; stroke-width: 0.554256"/>
    <path d="M 105.137134 266.68088 
L 106.869185 264.948829 
L 108.601236 266.68088 
L 110.333287 264.948829 
L 108.601236 263.216778 
L 110.333287 261.484727 
L 108.601236 259.752676 
L 106.869185 261.484727 
L 105.137134 259.752676 
L 103.405083 261.484727 
L 105.137134 263.216778 
L 103.405083 264.948829 
z
" clip-path="url(#p381291437f)" style="fill: #1f77b4; stroke: #ffffff; stroke-width: 0.554256"/>
    <path d="M 90.805323 279.075504 
L 92.537374 277.343453 
L 94.269425 279.075504 
L 96.001476 277.343453 
L 94.269425 275.611402 
L 96.001476 273.879351 
L 94.269425 272.1473 
L 92.537374 273.879351 
L 90.805323 272.1473 
L 89.073273 273.879351 
L 90.805323 275.611402 
L 89.073273 277.343453 
z
" clip-path="url(#p381291437f)" style="fill: #1f77b4; stroke: #ffffff; stroke-width: 0.554256"/>
    <path d="M 90.825993 278.493025 
L 92.558044 276.760974 
L 94.290094 278.493025 
L 96.022145 276.760974 
L 94.290094 275.028923 
L 96.022145 273.296873 
L 94.290094 271.564822 
L 92.558044 273.296873 
L 90.825993 271.564822 
L 89.093942 273.296873 
L 90.825993 275.028923 
L 89.093942 276.760974 
z
" clip-path="url(#p381291437f)" style="fill: #1f77b4; stroke: #ffffff; stroke-width: 0.554256"/>
    <path d="M 90.204925 279.355956 
L 91.936976 277.623906 
L 93.669026 279.355956 
L 95.401077 277.623906 
L 93.669026 275.891855 
L 95.401077 274.159804 
L 93.669026 272.427753 
L 91.936976 274.159804 
L 90.204925 272.427753 
L 88.472874 274.159804 
L 90.204925 275.891855 
L 88.472874 277.623906 
z
" clip-path="url(#p381291437f)" style="fill: #1f77b4; stroke: #ffffff; stroke-width: 0.554256"/>
    <path d="M 82.120213 285.249316 
L 83.852263 283.517265 
L 85.584314 285.249316 
L 87.316365 283.517265 
L 85.584314 281.785215 
L 87.316365 280.053164 
L 85.584314 278.321113 
L 83.852263 280.053164 
L 82.120213 278.321113 
L 80.388162 280.053164 
L 82.120213 281.785215 
L 80.388162 283.517265 
z
" clip-path="url(#p381291437f)" style="fill: #1f77b4; stroke: #ffffff; stroke-width: 0.554256"/>
    <path d="M 82.051314 285.41805 
L 83.783365 283.685999 
L 85.515416 285.41805 
L 87.247467 283.685999 
L 85.515416 281.953949 
L 87.247467 280.221898 
L 85.515416 278.489847 
L 83.783365 280.221898 
L 82.051314 278.489847 
L 80.319264 280.221898 
L 82.051314 281.953949 
L 80.319264 283.685999 
z
" clip-path="url(#p381291437f)" style="fill: #1f77b4; stroke: #ffffff; stroke-width: 0.554256"/>
    <path d="M 81.745209 285.918088 
L 83.47726 284.186037 
L 85.209311 285.918088 
L 86.941362 284.186037 
L 85.209311 282.453987 
L 86.941362 280.721936 
L 85.209311 278.989885 
L 83.47726 280.721936 
L 81.745209 278.989885 
L 80.013159 280.721936 
L 81.745209 282.453987 
L 80.013159 284.186037 
z
" clip-path="url(#p381291437f)" style="fill: #1f77b4; stroke: #ffffff; stroke-width: 0.554256"/>
    <path d="M 284.387712 120.222714 
L 284.387712 125.121694 
L 289.286692 125.121694 
L 289.286692 120.222714 
z
" clip-path="url(#p381291437f)" style="fill: #ff7f0e; stroke: #ffffff; stroke-width: 0.554256"/>
    <path d="M 284.9763 120.010063 
L 284.9763 124.909043 
L 289.875279 124.909043 
L 289.875279 120.010063 
z
" clip-path="url(#p381291437f)" style="fill: #ff7f0e; stroke: #ffffff; stroke-width: 0.554256"/>
    <path d="M 283.475303 121.347607 
L 283.475303 126.246587 
L 288.374283 126.246587 
L 288.374283 121.347607 
z
" clip-path="url(#p381291437f)" style="fill: #ff7f0e; stroke: #ffffff; stroke-width: 0.554256"/>
    <path d="M 173.779518 207.550611 
L 173.779518 212.449591 
L 178.678498 212.449591 
L 178.678498 207.550611 
z
" clip-path="url(#p381291437f)" style="fill: #1f77b4; stroke: #ffffff; stroke-width: 0.554256"/>
    <path d="M 169.722398 211.090942 
L 169.722398 215.989921 
L 174.621378 215.989921 
L 174.621378 211.090942 
z
" clip-path="url(#p381291437f)" style="fill: #1f77b4; stroke: #ffffff; stroke-width: 0.554256"/>
    <path d="M 171.61513 209.566943 
L 171.61513 214.465922 
L 176.51411 214.465922 
L 176.51411 209.566943 
z
" clip-path="url(#p381291437f)" style="fill: #1f77b4; stroke: #ffffff; stroke-width: 0.554256"/>
    <path d="M 140.654246 233.12112 
L 140.654246 238.0201 
L 145.553225 238.0201 
L 145.553225 233.12112 
z
" clip-path="url(#p381291437f)" style="fill: #1f77b4; stroke: #ffffff; stroke-width: 0.554256"/>
    <path d="M 139.999713 234.635873 
L 139.999713 239.534853 
L 144.898692 239.534853 
L 144.898692 234.635873 
z
" clip-path="url(#p381291437f)" style="fill: #1f77b4; stroke: #ffffff; stroke-width: 0.554256"/>
    <path d="M 139.041043 234.590415 
L 139.041043 239.489395 
L 143.940023 239.489395 
L 143.940023 234.590415 
z
" clip-path="url(#p381291437f)" style="fill: #1f77b4; stroke: #ffffff; stroke-width: 0.554256"/>
    <path d="M 120.50841 249.481377 
L 120.50841 254.380357 
L 125.40739 254.380357 
L 125.40739 249.481377 
z
" clip-path="url(#p381291437f)" style="fill: #1f77b4; stroke: #ffffff; stroke-width: 0.554256"/>
    <path d="M 119.855846 249.863532 
L 119.855846 254.762512 
L 124.754826 254.762512 
L 124.754826 249.863532 
z
" clip-path="url(#p381291437f)" style="fill: #1f77b4; stroke: #ffffff; stroke-width: 0.554256"/>
    <path d="M 119.281038 250.393619 
L 119.281038 255.292598 
L 124.180018 255.292598 
L 124.180018 250.393619 
z
" clip-path="url(#p381291437f)" style="fill: #1f77b4; stroke: #ffffff; stroke-width: 0.554256"/>
    <path d="M 109.549659 258.749415 
L 109.549659 263.648395 
L 114.448638 263.648395 
L 114.448638 258.749415 
z
" clip-path="url(#p381291437f)" style="fill: #1f77b4; stroke: #ffffff; stroke-width: 0.554256"/>
    <path d="M 109.373476 258.938952 
L 109.373476 263.837932 
L 114.272456 263.837932 
L 114.272456 258.938952 
z
" clip-path="url(#p381291437f)" style="fill: #1f77b4; stroke: #ffffff; stroke-width: 0.554256"/>
    <path d="M 109.783913 258.121479 
L 109.783913 263.020458 
L 114.682892 263.020458 
L 114.682892 258.121479 
z
" clip-path="url(#p381291437f)" style="fill: #1f77b4; stroke: #ffffff; stroke-width: 0.554256"/>
    <path d="M 395.967858 39.910187 
L 398.277259 39.910187 
L 398.277259 37.600786 
L 400.58666 37.600786 
L 400.58666 35.291385 
L 398.277259 35.291385 
L 398.277259 32.981984 
L 395.967858 32.981984 
L 395.967858 35.291385 
L 393.658457 35.291385 
L 393.658457 37.600786 
L 395.967858 37.600786 
z
" clip-path="url(#p381291437f)" style="fill: #ff7f0e; stroke: #ffffff; stroke-width: 0.554256"/>
    <path d="M 391.350694 43.181622 
L 393.660095 43.181622 
L 393.660095 40.872221 
L 395.969496 40.872221 
L 395.969496 38.56282 
L 393.660095 38.56282 
L 393.660095 36.253419 
L 391.350694 36.253419 
L 391.350694 38.56282 
L 389.041293 38.56282 
L 389.041293 40.872221 
L 391.350694 40.872221 
z
" clip-path="url(#p381291437f)" style="fill: #ff7f0e; stroke: #ffffff; stroke-width: 0.554256"/>
    <path d="M 396.88322 38.886227 
L 399.192621 38.886227 
L 399.192621 36.576826 
L 401.502022 36.576826 
L 401.502022 34.267424 
L 399.192621 34.267424 
L 399.192621 31.958023 
L 396.88322 31.958023 
L 396.88322 34.267424 
L 394.573819 34.267424 
L 394.573819 36.576826 
L 396.88322 36.576826 
z
" clip-path="url(#p381291437f)" style="fill: #ff7f0e; stroke: #ffffff; stroke-width: 0.554256"/>
    <path d="M 235.787406 165.536833 
L 238.096807 165.536833 
L 238.096807 163.227432 
L 240.406208 163.227432 
L 240.406208 160.918031 
L 238.096807 160.918031 
L 238.096807 158.60863 
L 235.787406 158.60863 
L 235.787406 160.918031 
L 233.478005 160.918031 
L 233.478005 163.227432 
L 235.787406 163.227432 
z
" clip-path="url(#p381291437f)" style="fill: #ff7f0e; stroke: #ffffff; stroke-width: 0.554256"/>
    <path d="M 234.583656 166.644776 
L 236.893057 166.644776 
L 236.893057 164.335374 
L 239.202458 164.335374 
L 239.202458 162.025973 
L 236.893057 162.025973 
L 236.893057 159.716572 
L 234.583656 159.716572 
L 234.583656 162.025973 
L 232.274254 162.025973 
L 232.274254 164.335374 
L 234.583656 164.335374 
z
" clip-path="url(#p381291437f)" style="fill: #ff7f0e; stroke: #ffffff; stroke-width: 0.554256"/>
    <path d="M 233.934044 166.919835 
L 236.243445 166.919835 
L 236.243445 164.610434 
L 238.552846 164.610434 
L 238.552846 162.301033 
L 236.243445 162.301033 
L 236.243445 159.991632 
L 233.934044 159.991632 
L 233.934044 162.301033 
L 231.624643 162.301033 
L 231.624643 164.610434 
L 233.934044 164.610434 
z
" clip-path="url(#p381291437f)" style="fill: #ff7f0e; stroke: #ffffff; stroke-width: 0.554256"/>
    <path d="M 188.740759 202.605905 
L 191.05016 202.605905 
L 191.05016 200.296504 
L 193.359561 200.296504 
L 193.359561 197.987102 
L 191.05016 197.987102 
L 191.05016 195.677701 
L 188.740759 195.677701 
L 188.740759 197.987102 
L 186.431357 197.987102 
L 186.431357 200.296504 
L 188.740759 200.296504 
z
" clip-path="url(#p381291437f)" style="fill: #1f77b4; stroke: #ffffff; stroke-width: 0.554256"/>
    <path d="M 189.492733 201.941756 
L 191.802134 201.941756 
L 191.802134 199.632355 
L 194.111535 199.632355 
L 194.111535 197.322953 
L 191.802134 197.322953 
L 191.802134 195.013552 
L 189.492733 195.013552 
L 189.492733 197.322953 
L 187.183332 197.322953 
L 187.183332 199.632355 
L 189.492733 199.632355 
z
" clip-path="url(#p381291437f)" style="fill: #1f77b4; stroke: #ffffff; stroke-width: 0.554256"/>
    <path d="M 189.492733 201.877806 
L 191.802134 201.877806 
L 191.802134 199.568405 
L 194.111535 199.568405 
L 194.111535 197.259004 
L 191.802134 197.259004 
L 191.802134 194.949603 
L 189.492733 194.949603 
L 189.492733 197.259004 
L 187.183332 197.259004 
L 187.183332 199.568405 
L 189.492733 199.568405 
z
" clip-path="url(#p381291437f)" style="fill: #1f77b4; stroke: #ffffff; stroke-width: 0.554256"/>
    <path d="M 161.4364 223.875625 
L 163.745801 223.875625 
L 163.745801 221.566224 
L 166.055202 221.566224 
L 166.055202 219.256823 
L 163.745801 219.256823 
L 163.745801 216.947422 
L 161.4364 216.947422 
L 161.4364 219.256823 
L 159.126999 219.256823 
L 159.126999 221.566224 
L 161.4364 221.566224 
z
" clip-path="url(#p381291437f)" style="fill: #1f77b4; stroke: #ffffff; stroke-width: 0.554256"/>
    <path d="M 161.597819 224.219257 
L 163.90722 224.219257 
L 163.90722 221.909856 
L 166.216621 221.909856 
L 166.216621 219.600455 
L 163.90722 219.600455 
L 163.90722 217.291053 
L 161.597819 217.291053 
L 161.597819 219.600455 
L 159.288417 219.600455 
L 159.288417 221.909856 
L 161.597819 221.909856 
z
" clip-path="url(#p381291437f)" style="fill: #1f77b4; stroke: #ffffff; stroke-width: 0.554256"/>
    <path d="M 161.299588 224.463497 
L 163.608989 224.463497 
L 163.608989 222.154096 
L 165.91839 222.154096 
L 165.91839 219.844695 
L 163.608989 219.844695 
L 163.608989 217.535294 
L 161.299588 217.535294 
L 161.299588 219.844695 
L 158.990187 219.844695 
L 158.990187 222.154096 
L 161.299588 222.154096 
z
" clip-path="url(#p381291437f)" style="fill: #1f77b4; stroke: #ffffff; stroke-width: 0.554256"/>
    <path d="M 147.377229 234.682301 
L 149.68663 234.682301 
L 149.68663 232.3729 
L 151.996031 232.3729 
L 151.996031 230.063499 
L 149.68663 230.063499 
L 149.68663 227.754098 
L 147.377229 227.754098 
L 147.377229 230.063499 
L 145.067828 230.063499 
L 145.067828 232.3729 
L 147.377229 232.3729 
z
" clip-path="url(#p381291437f)" style="fill: #1f77b4; stroke: #ffffff; stroke-width: 0.554256"/>
    <path d="M 146.580963 235.461251 
L 148.890364 235.461251 
L 148.890364 233.15185 
L 151.199765 233.15185 
L 151.199765 230.842449 
L 148.890364 230.842449 
L 148.890364 228.533048 
L 146.580963 228.533048 
L 146.580963 230.842449 
L 144.271562 230.842449 
L 144.271562 233.15185 
L 146.580963 233.15185 
z
" clip-path="url(#p381291437f)" style="fill: #1f77b4; stroke: #ffffff; stroke-width: 0.554256"/>
    <path d="M 145.803397 236.549161 
L 148.112798 236.549161 
L 148.112798 234.23976 
L 150.422199 234.23976 
L 150.422199 231.930359 
L 148.112798 231.930359 
L 148.112798 229.620958 
L 145.803397 229.620958 
L 145.803397 231.930359 
L 143.493996 231.930359 
L 143.493996 234.23976 
L 145.803397 234.23976 
z
" clip-path="url(#p381291437f)" style="fill: #1f77b4; stroke: #ffffff; stroke-width: 0.554256"/>
   </g>
   <g id="matplotlib.axis_1">
    <g id="xtick_1">
     <g id="line2d_1">
      <path d="M 72.429925 310.606125 
L 72.429925 22.318125 
" clip-path="url(#p381291437f)" style="fill: none; stroke: #b0b0b0; stroke-opacity: 0.25; stroke-width: 0.8; stroke-linecap: square"/>
     </g>
     <g id="line2d_2">
      <defs>
       <path id="m1c73df62ae" d="M 0 0 
L 0 3.5 
" style="stroke: #000000; stroke-width: 0.8"/>
      </defs>
      <g>
       <use xlink:href="#m1c73df62ae" x="72.429925" y="310.606125" style="stroke: #000000; stroke-width: 0.8"/>
      </g>
     </g>
     <g id="text_1">
      <!-- 25 -->
      <g transform="translate(66.067425 325.203781) scale(0.1 -0.1)">
       <defs>
        <path id="DejaVuSans-15" d="M 1228 531 
L 3431 531 
L 3431 0 
L 469 0 
L 469 531 
Q 828 903 1448 1529 
Q 2069 2156 2228 2338 
Q 2531 2678 2651 2914 
Q 2772 3150 2772 3378 
Q 2772 3750 2511 3984 
Q 2250 4219 1831 4219 
Q 1534 4219 1204 4116 
Q 875 4013 500 3803 
L 500 4441 
Q 881 4594 1212 4672 
Q 1544 4750 1819 4750 
Q 2544 4750 2975 4387 
Q 3406 4025 3406 3419 
Q 3406 3131 3298 2873 
Q 3191 2616 2906 2266 
Q 2828 2175 2409 1742 
Q 1991 1309 1228 531 
z
" transform="scale(0.015625)"/>
        <path id="DejaVuSans-18" d="M 691 4666 
L 3169 4666 
L 3169 4134 
L 1269 4134 
L 1269 2991 
Q 1406 3038 1543 3061 
Q 1681 3084 1819 3084 
Q 2600 3084 3056 2656 
Q 3513 2228 3513 1497 
Q 3513 744 3044 326 
Q 2575 -91 1722 -91 
Q 1428 -91 1123 -41 
Q 819 9 494 109 
L 494 744 
Q 775 591 1075 516 
Q 1375 441 1709 441 
Q 2250 441 2565 725 
Q 2881 1009 2881 1497 
Q 2881 1984 2565 2268 
Q 2250 2553 1709 2553 
Q 1456 2553 1204 2497 
Q 953 2441 691 2322 
L 691 4666 
z
" transform="scale(0.015625)"/>
       </defs>
       <use xlink:href="#DejaVuSans-15"/>
       <use xlink:href="#DejaVuSans-18" transform="translate(63.625 0)"/>
      </g>
     </g>
    </g>
    <g id="xtick_2">
     <g id="line2d_3">
      <path d="M 121.642929 310.606125 
L 121.642929 22.318125 
" clip-path="url(#p381291437f)" style="fill: none; stroke: #b0b0b0; stroke-opacity: 0.25; stroke-width: 0.8; stroke-linecap: square"/>
     </g>
     <g id="line2d_4">
      <g>
       <use xlink:href="#m1c73df62ae" x="121.642929" y="310.606125" style="stroke: #000000; stroke-width: 0.8"/>
      </g>
     </g>
     <g id="text_2">
      <!-- 50 -->
      <g transform="translate(115.280429 325.203781) scale(0.1 -0.1)">
       <defs>
        <path id="DejaVuSans-13" d="M 2034 4250 
Q 1547 4250 1301 3770 
Q 1056 3291 1056 2328 
Q 1056 1369 1301 889 
Q 1547 409 2034 409 
Q 2525 409 2770 889 
Q 3016 1369 3016 2328 
Q 3016 3291 2770 3770 
Q 2525 4250 2034 4250 
z
M 2034 4750 
Q 2819 4750 3233 4129 
Q 3647 3509 3647 2328 
Q 3647 1150 3233 529 
Q 2819 -91 2034 -91 
Q 1250 -91 836 529 
Q 422 1150 422 2328 
Q 422 3509 836 4129 
Q 1250 4750 2034 4750 
z
" transform="scale(0.015625)"/>
       </defs>
       <use xlink:href="#DejaVuSans-18"/>
       <use xlink:href="#DejaVuSans-13" transform="translate(63.625 0)"/>
      </g>
     </g>
    </g>
    <g id="xtick_3">
     <g id="line2d_5">
      <path d="M 170.855932 310.606125 
L 170.855932 22.318125 
" clip-path="url(#p381291437f)" style="fill: none; stroke: #b0b0b0; stroke-opacity: 0.25; stroke-width: 0.8; stroke-linecap: square"/>
     </g>
     <g id="line2d_6">
      <g>
       <use xlink:href="#m1c73df62ae" x="170.855932" y="310.606125" style="stroke: #000000; stroke-width: 0.8"/>
      </g>
     </g>
     <g id="text_3">
      <!-- 75 -->
      <g transform="translate(164.493432 325.203781) scale(0.1 -0.1)">
       <defs>
        <path id="DejaVuSans-1a" d="M 525 4666 
L 3525 4666 
L 3525 4397 
L 1831 0 
L 1172 0 
L 2766 4134 
L 525 4134 
L 525 4666 
z
" transform="scale(0.015625)"/>
       </defs>
       <use xlink:href="#DejaVuSans-1a"/>
       <use xlink:href="#DejaVuSans-18" transform="translate(63.625 0)"/>
      </g>
     </g>
    </g>
    <g id="xtick_4">
     <g id="line2d_7">
      <path d="M 220.068936 310.606125 
L 220.068936 22.318125 
" clip-path="url(#p381291437f)" style="fill: none; stroke: #b0b0b0; stroke-opacity: 0.25; stroke-width: 0.8; stroke-linecap: square"/>
     </g>
     <g id="line2d_8">
      <g>
       <use xlink:href="#m1c73df62ae" x="220.068936" y="310.606125" style="stroke: #000000; stroke-width: 0.8"/>
      </g>
     </g>
     <g id="text_4">
      <!-- 100 -->
      <g transform="translate(210.525186 325.203781) scale(0.1 -0.1)">
       <defs>
        <path id="DejaVuSans-14" d="M 794 531 
L 1825 531 
L 1825 4091 
L 703 3866 
L 703 4441 
L 1819 4666 
L 2450 4666 
L 2450 531 
L 3481 531 
L 3481 0 
L 794 0 
L 794 531 
z
" transform="scale(0.015625)"/>
       </defs>
       <use xlink:href="#DejaVuSans-14"/>
       <use xlink:href="#DejaVuSans-13" transform="translate(63.625 0)"/>
       <use xlink:href="#DejaVuSans-13" transform="translate(127.25 0)"/>
      </g>
     </g>
    </g>
    <g id="xtick_5">
     <g id="line2d_9">
      <path d="M 269.281939 310.606125 
L 269.281939 22.318125 
" clip-path="url(#p381291437f)" style="fill: none; stroke: #b0b0b0; stroke-opacity: 0.25; stroke-width: 0.8; stroke-linecap: square"/>
     </g>
     <g id="line2d_10">
      <g>
       <use xlink:href="#m1c73df62ae" x="269.281939" y="310.606125" style="stroke: #000000; stroke-width: 0.8"/>
      </g>
     </g>
     <g id="text_5">
      <!-- 125 -->
      <g transform="translate(259.738189 325.203781) scale(0.1 -0.1)">
       <use xlink:href="#DejaVuSans-14"/>
       <use xlink:href="#DejaVuSans-15" transform="translate(63.625 0)"/>
       <use xlink:href="#DejaVuSans-18" transform="translate(127.25 0)"/>
      </g>
     </g>
    </g>
    <g id="xtick_6">
     <g id="line2d_11">
      <path d="M 318.494943 310.606125 
L 318.494943 22.318125 
" clip-path="url(#p381291437f)" style="fill: none; stroke: #b0b0b0; stroke-opacity: 0.25; stroke-width: 0.8; stroke-linecap: square"/>
     </g>
     <g id="line2d_12">
      <g>
       <use xlink:href="#m1c73df62ae" x="318.494943" y="310.606125" style="stroke: #000000; stroke-width: 0.8"/>
      </g>
     </g>
     <g id="text_6">
      <!-- 150 -->
      <g transform="translate(308.951193 325.203781) scale(0.1 -0.1)">
       <use xlink:href="#DejaVuSans-14"/>
       <use xlink:href="#DejaVuSans-18" transform="translate(63.625 0)"/>
       <use xlink:href="#DejaVuSans-13" transform="translate(127.25 0)"/>
      </g>
     </g>
    </g>
    <g id="xtick_7">
     <g id="line2d_13">
      <path d="M 367.707946 310.606125 
L 367.707946 22.318125 
" clip-path="url(#p381291437f)" style="fill: none; stroke: #b0b0b0; stroke-opacity: 0.25; stroke-width: 0.8; stroke-linecap: square"/>
     </g>
     <g id="line2d_14">
      <g>
       <use xlink:href="#m1c73df62ae" x="367.707946" y="310.606125" style="stroke: #000000; stroke-width: 0.8"/>
      </g>
     </g>
     <g id="text_7">
      <!-- 175 -->
      <g transform="translate(358.164196 325.203781) scale(0.1 -0.1)">
       <use xlink:href="#DejaVuSans-14"/>
       <use xlink:href="#DejaVuSans-1a" transform="translate(63.625 0)"/>
       <use xlink:href="#DejaVuSans-18" transform="translate(127.25 0)"/>
      </g>
     </g>
    </g>
    <g id="text_8">
     <!-- Manual (um) -->
     <g transform="translate(199.729844 339.204562) scale(0.1 -0.1)">
      <defs>
       <path id="DejaVuSans-30" d="M 628 4666 
L 1569 4666 
L 2759 1491 
L 3956 4666 
L 4897 4666 
L 4897 0 
L 4281 0 
L 4281 4097 
L 3078 897 
L 2444 897 
L 1241 4097 
L 1241 0 
L 628 0 
L 628 4666 
z
" transform="scale(0.015625)"/>
       <path id="DejaVuSans-44" d="M 2194 1759 
Q 1497 1759 1228 1600 
Q 959 1441 959 1056 
Q 959 750 1161 570 
Q 1363 391 1709 391 
Q 2188 391 2477 730 
Q 2766 1069 2766 1631 
L 2766 1759 
L 2194 1759 
z
M 3341 1997 
L 3341 0 
L 2766 0 
L 2766 531 
Q 2569 213 2275 61 
Q 1981 -91 1556 -91 
Q 1019 -91 701 211 
Q 384 513 384 1019 
Q 384 1609 779 1909 
Q 1175 2209 1959 2209 
L 2766 2209 
L 2766 2266 
Q 2766 2663 2505 2880 
Q 2244 3097 1772 3097 
Q 1472 3097 1187 3025 
Q 903 2953 641 2809 
L 641 3341 
Q 956 3463 1253 3523 
Q 1550 3584 1831 3584 
Q 2591 3584 2966 3190 
Q 3341 2797 3341 1997 
z
" transform="scale(0.015625)"/>
       <path id="DejaVuSans-51" d="M 3513 2113 
L 3513 0 
L 2938 0 
L 2938 2094 
Q 2938 2591 2744 2837 
Q 2550 3084 2163 3084 
Q 1697 3084 1428 2787 
Q 1159 2491 1159 1978 
L 1159 0 
L 581 0 
L 581 3500 
L 1159 3500 
L 1159 2956 
Q 1366 3272 1645 3428 
Q 1925 3584 2291 3584 
Q 2894 3584 3203 3211 
Q 3513 2838 3513 2113 
z
" transform="scale(0.015625)"/>
       <path id="DejaVuSans-58" d="M 544 1381 
L 544 3500 
L 1119 3500 
L 1119 1403 
Q 1119 906 1312 657 
Q 1506 409 1894 409 
Q 2359 409 2629 706 
Q 2900 1003 2900 1516 
L 2900 3500 
L 3475 3500 
L 3475 0 
L 2900 0 
L 2900 538 
Q 2691 219 2414 64 
Q 2138 -91 1772 -91 
Q 1169 -91 856 284 
Q 544 659 544 1381 
z
M 1991 3584 
L 1991 3584 
z
" transform="scale(0.015625)"/>
       <path id="DejaVuSans-4f" d="M 603 4863 
L 1178 4863 
L 1178 0 
L 603 0 
L 603 4863 
z
" transform="scale(0.015625)"/>
       <path id="DejaVuSans-3" transform="scale(0.015625)"/>
       <path id="DejaVuSans-b" d="M 1984 4856 
Q 1566 4138 1362 3434 
Q 1159 2731 1159 2009 
Q 1159 1288 1364 580 
Q 1569 -128 1984 -844 
L 1484 -844 
Q 1016 -109 783 600 
Q 550 1309 550 2009 
Q 550 2706 781 3412 
Q 1013 4119 1484 4856 
L 1984 4856 
z
" transform="scale(0.015625)"/>
       <path id="DejaVuSans-50" d="M 3328 2828 
Q 3544 3216 3844 3400 
Q 4144 3584 4550 3584 
Q 5097 3584 5394 3201 
Q 5691 2819 5691 2113 
L 5691 0 
L 5113 0 
L 5113 2094 
Q 5113 2597 4934 2840 
Q 4756 3084 4391 3084 
Q 3944 3084 3684 2787 
Q 3425 2491 3425 1978 
L 3425 0 
L 2847 0 
L 2847 2094 
Q 2847 2600 2669 2842 
Q 2491 3084 2119 3084 
Q 1678 3084 1418 2786 
Q 1159 2488 1159 1978 
L 1159 0 
L 581 0 
L 581 3500 
L 1159 3500 
L 1159 2956 
Q 1356 3278 1631 3431 
Q 1906 3584 2284 3584 
Q 2666 3584 2933 3390 
Q 3200 3197 3328 2828 
z
" transform="scale(0.015625)"/>
       <path id="DejaVuSans-c" d="M 513 4856 
L 1013 4856 
Q 1481 4119 1714 3412 
Q 1947 2706 1947 2009 
Q 1947 1309 1714 600 
Q 1481 -109 1013 -844 
L 513 -844 
Q 928 -128 1133 580 
Q 1338 1288 1338 2009 
Q 1338 2731 1133 3434 
Q 928 4138 513 4856 
z
" transform="scale(0.015625)"/>
      </defs>
      <use xlink:href="#DejaVuSans-30"/>
      <use xlink:href="#DejaVuSans-44" transform="translate(86.28125 0)"/>
      <use xlink:href="#DejaVuSans-51" transform="translate(147.5625 0)"/>
      <use xlink:href="#DejaVuSans-58" transform="translate(210.9375 0)"/>
      <use xlink:href="#DejaVuSans-44" transform="translate(274.3125 0)"/>
      <use xlink:href="#DejaVuSans-4f" transform="translate(335.59375 0)"/>
      <use xlink:href="#DejaVuSans-3" transform="translate(363.375 0)"/>
      <use xlink:href="#DejaVuSans-b" transform="translate(395.15625 0)"/>
      <use xlink:href="#DejaVuSans-58" transform="translate(434.171875 0)"/>
      <use xlink:href="#DejaVuSans-50" transform="translate(497.546875 0)"/>
      <use xlink:href="#DejaVuSans-c" transform="translate(594.953125 0)"/>
     </g>
    </g>
   </g>
   <g id="matplotlib.axis_2">
    <g id="ytick_1">
     <g id="line2d_15">
      <path d="M 47.288281 290.925354 
L 415.568281 290.925354 
" clip-path="url(#p381291437f)" style="fill: none; stroke: #b0b0b0; stroke-opacity: 0.25; stroke-width: 0.8; stroke-linecap: square"/>
     </g>
     <g id="line2d_16">
      <defs>
       <path id="m3b356c6e2f" d="M 0 0 
L -3.5 0 
" style="stroke: #000000; stroke-width: 0.8"/>
      </defs>
      <g>
       <use xlink:href="#m3b356c6e2f" x="47.288281" y="290.925354" style="stroke: #000000; stroke-width: 0.8"/>
      </g>
     </g>
     <g id="text_9">
      <!-- 25 -->
      <g transform="translate(27.563281 294.724182) scale(0.1 -0.1)">
       <use xlink:href="#DejaVuSans-15"/>
       <use xlink:href="#DejaVuSans-18" transform="translate(63.625 0)"/>
      </g>
     </g>
    </g>
    <g id="ytick_2">
     <g id="line2d_17">
      <path d="M 47.288281 252.401627 
L 415.568281 252.401627 
" clip-path="url(#p381291437f)" style="fill: none; stroke: #b0b0b0; stroke-opacity: 0.25; stroke-width: 0.8; stroke-linecap: square"/>
     </g>
     <g id="line2d_18">
      <g>
       <use xlink:href="#m3b356c6e2f" x="47.288281" y="252.401627" style="stroke: #000000; stroke-width: 0.8"/>
      </g>
     </g>
     <g id="text_10">
      <!-- 50 -->
      <g transform="translate(27.563281 256.200455) scale(0.1 -0.1)">
       <use xlink:href="#DejaVuSans-18"/>
       <use xlink:href="#DejaVuSans-13" transform="translate(63.625 0)"/>
      </g>
     </g>
    </g>
    <g id="ytick_3">
     <g id="line2d_19">
      <path d="M 47.288281 213.877899 
L 415.568281 213.877899 
" clip-path="url(#p381291437f)" style="fill: none; stroke: #b0b0b0; stroke-opacity: 0.25; stroke-width: 0.8; stroke-linecap: square"/>
     </g>
     <g id="line2d_20">
      <g>
       <use xlink:href="#m3b356c6e2f" x="47.288281" y="213.877899" style="stroke: #000000; stroke-width: 0.8"/>
      </g>
     </g>
     <g id="text_11">
      <!-- 75 -->
      <g transform="translate(27.563281 217.676727) scale(0.1 -0.1)">
       <use xlink:href="#DejaVuSans-1a"/>
       <use xlink:href="#DejaVuSans-18" transform="translate(63.625 0)"/>
      </g>
     </g>
    </g>
    <g id="ytick_4">
     <g id="line2d_21">
      <path d="M 47.288281 175.354172 
L 415.568281 175.354172 
" clip-path="url(#p381291437f)" style="fill: none; stroke: #b0b0b0; stroke-opacity: 0.25; stroke-width: 0.8; stroke-linecap: square"/>
     </g>
     <g id="line2d_22">
      <g>
       <use xlink:href="#m3b356c6e2f" x="47.288281" y="175.354172" style="stroke: #000000; stroke-width: 0.8"/>
      </g>
     </g>
     <g id="text_12">
      <!-- 100 -->
      <g transform="translate(21.200781 179.153) scale(0.1 -0.1)">
       <use xlink:href="#DejaVuSans-14"/>
       <use xlink:href="#DejaVuSans-13" transform="translate(63.625 0)"/>
       <use xlink:href="#DejaVuSans-13" transform="translate(127.25 0)"/>
      </g>
     </g>
    </g>
    <g id="ytick_5">
     <g id="line2d_23">
      <path d="M 47.288281 136.830444 
L 415.568281 136.830444 
" clip-path="url(#p381291437f)" style="fill: none; stroke: #b0b0b0; stroke-opacity: 0.25; stroke-width: 0.8; stroke-linecap: square"/>
     </g>
     <g id="line2d_24">
      <g>
       <use xlink:href="#m3b356c6e2f" x="47.288281" y="136.830444" style="stroke: #000000; stroke-width: 0.8"/>
      </g>
     </g>
     <g id="text_13">
      <!-- 125 -->
      <g transform="translate(21.200781 140.629272) scale(0.1 -0.1)">
       <use xlink:href="#DejaVuSans-14"/>
       <use xlink:href="#DejaVuSans-15" transform="translate(63.625 0)"/>
       <use xlink:href="#DejaVuSans-18" transform="translate(127.25 0)"/>
      </g>
     </g>
    </g>
    <g id="ytick_6">
     <g id="line2d_25">
      <path d="M 47.288281 98.306717 
L 415.568281 98.306717 
" clip-path="url(#p381291437f)" style="fill: none; stroke: #b0b0b0; stroke-opacity: 0.25; stroke-width: 0.8; stroke-linecap: square"/>
     </g>
     <g id="line2d_26">
      <g>
       <use xlink:href="#m3b356c6e2f" x="47.288281" y="98.306717" style="stroke: #000000; stroke-width: 0.8"/>
      </g>
     </g>
     <g id="text_14">
      <!-- 150 -->
      <g transform="translate(21.200781 102.105545) scale(0.1 -0.1)">
       <use xlink:href="#DejaVuSans-14"/>
       <use xlink:href="#DejaVuSans-18" transform="translate(63.625 0)"/>
       <use xlink:href="#DejaVuSans-13" transform="translate(127.25 0)"/>
      </g>
     </g>
    </g>
    <g id="ytick_7">
     <g id="line2d_27">
      <path d="M 47.288281 59.782989 
L 415.568281 59.782989 
" clip-path="url(#p381291437f)" style="fill: none; stroke: #b0b0b0; stroke-opacity: 0.25; stroke-width: 0.8; stroke-linecap: square"/>
     </g>
     <g id="line2d_28">
      <g>
       <use xlink:href="#m3b356c6e2f" x="47.288281" y="59.782989" style="stroke: #000000; stroke-width: 0.8"/>
      </g>
     </g>
     <g id="text_15">
      <!-- 175 -->
      <g transform="translate(21.200781 63.581817) scale(0.1 -0.1)">
       <use xlink:href="#DejaVuSans-14"/>
       <use xlink:href="#DejaVuSans-1a" transform="translate(63.625 0)"/>
       <use xlink:href="#DejaVuSans-18" transform="translate(127.25 0)"/>
      </g>
     </g>
    </g>
    <g id="text_16">
     <!-- Automatic IMS (um) -->
     <g transform="translate(14.798437 216.185562) rotate(-90) scale(0.1 -0.1)">
      <defs>
       <path id="DejaVuSans-24" d="M 2188 4044 
L 1331 1722 
L 3047 1722 
L 2188 4044 
z
M 1831 4666 
L 2547 4666 
L 4325 0 
L 3669 0 
L 3244 1197 
L 1141 1197 
L 716 0 
L 50 0 
L 1831 4666 
z
" transform="scale(0.015625)"/>
       <path id="DejaVuSans-57" d="M 1172 4494 
L 1172 3500 
L 2356 3500 
L 2356 3053 
L 1172 3053 
L 1172 1153 
Q 1172 725 1289 603 
Q 1406 481 1766 481 
L 2356 481 
L 2356 0 
L 1766 0 
Q 1100 0 847 248 
Q 594 497 594 1153 
L 594 3053 
L 172 3053 
L 172 3500 
L 594 3500 
L 594 4494 
L 1172 4494 
z
" transform="scale(0.015625)"/>
       <path id="DejaVuSans-52" d="M 1959 3097 
Q 1497 3097 1228 2736 
Q 959 2375 959 1747 
Q 959 1119 1226 758 
Q 1494 397 1959 397 
Q 2419 397 2687 759 
Q 2956 1122 2956 1747 
Q 2956 2369 2687 2733 
Q 2419 3097 1959 3097 
z
M 1959 3584 
Q 2709 3584 3137 3096 
Q 3566 2609 3566 1747 
Q 3566 888 3137 398 
Q 2709 -91 1959 -91 
Q 1206 -91 779 398 
Q 353 888 353 1747 
Q 353 2609 779 3096 
Q 1206 3584 1959 3584 
z
" transform="scale(0.015625)"/>
       <path id="DejaVuSans-4c" d="M 603 3500 
L 1178 3500 
L 1178 0 
L 603 0 
L 603 3500 
z
M 603 4863 
L 1178 4863 
L 1178 4134 
L 603 4134 
L 603 4863 
z
" transform="scale(0.015625)"/>
       <path id="DejaVuSans-46" d="M 3122 3366 
L 3122 2828 
Q 2878 2963 2633 3030 
Q 2388 3097 2138 3097 
Q 1578 3097 1268 2742 
Q 959 2388 959 1747 
Q 959 1106 1268 751 
Q 1578 397 2138 397 
Q 2388 397 2633 464 
Q 2878 531 3122 666 
L 3122 134 
Q 2881 22 2623 -34 
Q 2366 -91 2075 -91 
Q 1284 -91 818 406 
Q 353 903 353 1747 
Q 353 2603 823 3093 
Q 1294 3584 2113 3584 
Q 2378 3584 2631 3529 
Q 2884 3475 3122 3366 
z
" transform="scale(0.015625)"/>
       <path id="DejaVuSans-2c" d="M 628 4666 
L 1259 4666 
L 1259 0 
L 628 0 
L 628 4666 
z
" transform="scale(0.015625)"/>
       <path id="DejaVuSans-36" d="M 3425 4513 
L 3425 3897 
Q 3066 4069 2747 4153 
Q 2428 4238 2131 4238 
Q 1616 4238 1336 4038 
Q 1056 3838 1056 3469 
Q 1056 3159 1242 3001 
Q 1428 2844 1947 2747 
L 2328 2669 
Q 3034 2534 3370 2195 
Q 3706 1856 3706 1288 
Q 3706 609 3251 259 
Q 2797 -91 1919 -91 
Q 1588 -91 1214 -16 
Q 841 59 441 206 
L 441 856 
Q 825 641 1194 531 
Q 1563 422 1919 422 
Q 2459 422 2753 634 
Q 3047 847 3047 1241 
Q 3047 1584 2836 1778 
Q 2625 1972 2144 2069 
L 1759 2144 
Q 1053 2284 737 2584 
Q 422 2884 422 3419 
Q 422 4038 858 4394 
Q 1294 4750 2059 4750 
Q 2388 4750 2728 4690 
Q 3069 4631 3425 4513 
z
" transform="scale(0.015625)"/>
      </defs>
      <use xlink:href="#DejaVuSans-24"/>
      <use xlink:href="#DejaVuSans-58" transform="translate(68.40625 0)"/>
      <use xlink:href="#DejaVuSans-57" transform="translate(131.78125 0)"/>
      <use xlink:href="#DejaVuSans-52" transform="translate(170.984375 0)"/>
      <use xlink:href="#DejaVuSans-50" transform="translate(232.171875 0)"/>
      <use xlink:href="#DejaVuSans-44" transform="translate(329.578125 0)"/>
      <use xlink:href="#DejaVuSans-57" transform="translate(390.859375 0)"/>
      <use xlink:href="#DejaVuSans-4c" transform="translate(430.0625 0)"/>
      <use xlink:href="#DejaVuSans-46" transform="translate(457.84375 0)"/>
      <use xlink:href="#DejaVuSans-3" transform="translate(512.828125 0)"/>
      <use xlink:href="#DejaVuSans-2c" transform="translate(544.609375 0)"/>
      <use xlink:href="#DejaVuSans-30" transform="translate(574.109375 0)"/>
      <use xlink:href="#DejaVuSans-36" transform="translate(660.390625 0)"/>
      <use xlink:href="#DejaVuSans-3" transform="translate(723.875 0)"/>
      <use xlink:href="#DejaVuSans-b" transform="translate(755.65625 0)"/>
      <use xlink:href="#DejaVuSans-58" transform="translate(794.671875 0)"/>
      <use xlink:href="#DejaVuSans-50" transform="translate(858.046875 0)"/>
      <use xlink:href="#DejaVuSans-c" transform="translate(955.453125 0)"/>
     </g>
    </g>
   </g>
   <g id="line2d_29"/>
   <g id="line2d_30"/>
   <g id="line2d_31"/>
   <g id="line2d_32"/>
   <g id="line2d_33"/>
   <g id="line2d_34"/>
   <g id="line2d_35"/>
   <g id="line2d_36"/>
   <g id="line2d_37">
    <path d="M 64.028281 297.502125 
L 398.828281 35.422125 
" clip-path="url(#p381291437f)" style="fill: none; stroke: #404040; stroke-linecap: square"/>
   </g>
   <g id="patch_3">
    <path d="M 47.288281 310.606125 
L 47.288281 22.318125 
" style="fill: none; stroke: #000000; stroke-width: 0.8; stroke-linejoin: miter; stroke-linecap: square"/>
   </g>
   <g id="patch_4">
    <path d="M 415.568281 310.606125 
L 415.568281 22.318125 
" style="fill: none; stroke: #000000; stroke-width: 0.8; stroke-linejoin: miter; stroke-linecap: square"/>
   </g>
   <g id="patch_5">
    <path d="M 47.288281 310.606125 
L 415.568281 310.606125 
" style="fill: none; stroke: #000000; stroke-width: 0.8; stroke-linejoin: miter; stroke-linecap: square"/>
   </g>
   <g id="patch_6">
    <path d="M 47.288281 22.318125 
L 415.568281 22.318125 
" style="fill: none; stroke: #000000; stroke-width: 0.8; stroke-linejoin: miter; stroke-linecap: square"/>
   </g>
   <g id="text_17">
    <!-- Micro-Vickers: manual vs automatic (n=54) -->
    <g transform="translate(101.587344 16.318125) scale(0.12 -0.12)">
     <defs>
      <path id="DejaVuSans-55" d="M 2631 2963 
Q 2534 3019 2420 3045 
Q 2306 3072 2169 3072 
Q 1681 3072 1420 2755 
Q 1159 2438 1159 1844 
L 1159 0 
L 581 0 
L 581 3500 
L 1159 3500 
L 1159 2956 
Q 1341 3275 1631 3429 
Q 1922 3584 2338 3584 
Q 2397 3584 2469 3576 
Q 2541 3569 2628 3553 
L 2631 2963 
z
" transform="scale(0.015625)"/>
      <path id="DejaVuSans-10" d="M 313 2009 
L 1997 2009 
L 1997 1497 
L 313 1497 
L 313 2009 
z
" transform="scale(0.015625)"/>
      <path id="DejaVuSans-39" d="M 1831 0 
L 50 4666 
L 709 4666 
L 2188 738 
L 3669 4666 
L 4325 4666 
L 2547 0 
L 1831 0 
z
" transform="scale(0.015625)"/>
      <path id="DejaVuSans-4e" d="M 581 4863 
L 1159 4863 
L 1159 1991 
L 2875 3500 
L 3609 3500 
L 1753 1863 
L 3688 0 
L 2938 0 
L 1159 1709 
L 1159 0 
L 581 0 
L 581 4863 
z
" transform="scale(0.015625)"/>
      <path id="DejaVuSans-48" d="M 3597 1894 
L 3597 1613 
L 953 1613 
Q 991 1019 1311 708 
Q 1631 397 2203 397 
Q 2534 397 2845 478 
Q 3156 559 3463 722 
L 3463 178 
Q 3153 47 2828 -22 
Q 2503 -91 2169 -91 
Q 1331 -91 842 396 
Q 353 884 353 1716 
Q 353 2575 817 3079 
Q 1281 3584 2069 3584 
Q 2775 3584 3186 3129 
Q 3597 2675 3597 1894 
z
M 3022 2063 
Q 3016 2534 2758 2815 
Q 2500 3097 2075 3097 
Q 1594 3097 1305 2825 
Q 1016 2553 972 2059 
L 3022 2063 
z
" transform="scale(0.015625)"/>
      <path id="DejaVuSans-56" d="M 2834 3397 
L 2834 2853 
Q 2591 2978 2328 3040 
Q 2066 3103 1784 3103 
Q 1356 3103 1142 2972 
Q 928 2841 928 2578 
Q 928 2378 1081 2264 
Q 1234 2150 1697 2047 
L 1894 2003 
Q 2506 1872 2764 1633 
Q 3022 1394 3022 966 
Q 3022 478 2636 193 
Q 2250 -91 1575 -91 
Q 1294 -91 989 -36 
Q 684 19 347 128 
L 347 722 
Q 666 556 975 473 
Q 1284 391 1588 391 
Q 1994 391 2212 530 
Q 2431 669 2431 922 
Q 2431 1156 2273 1281 
Q 2116 1406 1581 1522 
L 1381 1569 
Q 847 1681 609 1914 
Q 372 2147 372 2553 
Q 372 3047 722 3315 
Q 1072 3584 1716 3584 
Q 2034 3584 2315 3537 
Q 2597 3491 2834 3397 
z
" transform="scale(0.015625)"/>
      <path id="DejaVuSans-1d" d="M 750 794 
L 1409 794 
L 1409 0 
L 750 0 
L 750 794 
z
M 750 3309 
L 1409 3309 
L 1409 2516 
L 750 2516 
L 750 3309 
z
" transform="scale(0.015625)"/>
      <path id="DejaVuSans-59" d="M 191 3500 
L 800 3500 
L 1894 563 
L 2988 3500 
L 3597 3500 
L 2284 0 
L 1503 0 
L 191 3500 
z
" transform="scale(0.015625)"/>
      <path id="DejaVuSans-20" d="M 678 2906 
L 4684 2906 
L 4684 2381 
L 678 2381 
L 678 2906 
z
M 678 1631 
L 4684 1631 
L 4684 1100 
L 678 1100 
L 678 1631 
z
" transform="scale(0.015625)"/>
      <path id="DejaVuSans-17" d="M 2419 4116 
L 825 1625 
L 2419 1625 
L 2419 4116 
z
M 2253 4666 
L 3047 4666 
L 3047 1625 
L 3713 1625 
L 3713 1100 
L 3047 1100 
L 3047 0 
L 2419 0 
L 2419 1100 
L 313 1100 
L 313 1709 
L 2253 4666 
z
" transform="scale(0.015625)"/>
     </defs>
     <use xlink:href="#DejaVuSans-30"/>
     <use xlink:href="#DejaVuSans-4c" transform="translate(86.28125 0)"/>
     <use xlink:href="#DejaVuSans-46" transform="translate(114.0625 0)"/>
     <use xlink:href="#DejaVuSans-55" transform="translate(169.046875 0)"/>
     <use xlink:href="#DejaVuSans-52" transform="translate(207.953125 0)"/>
     <use xlink:href="#DejaVuSans-10" transform="translate(271 0)"/>
     <use xlink:href="#DejaVuSans-39" transform="translate(301.21875 0)"/>
     <use xlink:href="#DejaVuSans-4c" transform="translate(367.421875 0)"/>
     <use xlink:href="#DejaVuSans-46" transform="translate(395.203125 0)"/>
     <use xlink:href="#DejaVuSans-4e" transform="translate(450.1875 0)"/>
     <use xlink:href="#DejaVuSans-48" transform="translate(504.53125 0)"/>
     <use xlink:href="#DejaVuSans-55" transform="translate(566.0625 0)"/>
     <use xlink:href="#DejaVuSans-56" transform="translate(607.171875 0)"/>
     <use xlink:href="#DejaVuSans-1d" transform="translate(659.265625 0)"/>
     <use xlink:href="#DejaVuSans-3" transform="translate(692.953125 0)"/>
     <use xlink:href="#DejaVuSans-50" transform="translate(724.734375 0)"/>
     <use xlink:href="#DejaVuSans-44" transform="translate(822.140625 0)"/>
     <use xlink:href="#DejaVuSans-51" transform="translate(883.421875 0)"/>
     <use xlink:href="#DejaVuSans-58" transform="translate(946.796875 0)"/>
     <use xlink:href="#DejaVuSans-44" transform="translate(1010.171875 0)"/>
     <use xlink:href="#DejaVuSans-4f" transform="translate(1071.453125 0)"/>
     <use xlink:href="#DejaVuSans-3" transform="translate(1099.234375 0)"/>
     <use xlink:href="#DejaVuSans-59" transform="translate(1131.015625 0)"/>
     <use xlink:href="#DejaVuSans-56" transform="translate(1190.203125 0)"/>
     <use xlink:href="#DejaVuSans-3" transform="translate(1242.296875 0)"/>
     <use xlink:href="#DejaVuSans-44" transform="translate(1274.078125 0)"/>
     <use xlink:href="#DejaVuSans-58" transform="translate(1335.359375 0)"/>
     <use xlink:href="#DejaVuSans-57" transform="translate(1398.734375 0)"/>
     <use xlink:href="#DejaVuSans-52" transform="translate(1437.9375 0)"/>
     <use xlink:href="#DejaVuSans-50" transform="translate(1499.125 0)"/>
     <use xlink:href="#DejaVuSans-44" transform="translate(1596.53125 0)"/>
     <use xlink:href="#DejaVuSans-57" transform="translate(1657.8125 0)"/>
     <use xlink:href="#DejaVuSans-4c" transform="translate(1697.015625 0)"/>
     <use xlink:href="#DejaVuSans-46" transform="translate(1724.796875 0)"/>
     <use xlink:href="#DejaVuSans-3" transform="translate(1779.78125 0)"/>
     <use xlink:href="#DejaVuSans-b" transform="translate(1811.5625 0)"/>
     <use xlink:href="#DejaVuSans-51" transform="translate(1850.578125 0)"/>
     <use xlink:href="#DejaVuSans-20" transform="translate(1913.953125 0)"/>
     <use xlink:href="#DejaVuSans-18" transform="translate(1997.75 0)"/>
     <use xlink:href="#DejaVuSans-17" transform="translate(2061.375 0)"/>
     <use xlink:href="#DejaVuSans-c" transform="translate(2125 0)"/>
    </g>
   </g>
   <g id="legend_1">
    <g id="patch_7">
     <path d="M 52.888281 136.72375 
L 139.629531 136.72375 
Q 141.229531 136.72375 141.229531 135.12375 
L 141.229531 27.918125 
Q 141.229531 26.318125 139.629531 26.318125 
L 52.888281 26.318125 
Q 51.288281 26.318125 51.288281 27.918125 
L 51.288281 135.12375 
Q 51.288281 136.72375 52.888281 136.72375 
z
" style="fill: #ffffff; opacity: 0.8; stroke: #cccccc; stroke-linejoin: miter"/>
    </g>
    <g id="line2d_38"/>
    <g id="text_18">
     <!-- magnification -->
     <g transform="translate(76.888281 35.596875) scale(0.08 -0.08)">
      <defs>
       <path id="DejaVuSans-4a" d="M 2906 1791 
Q 2906 2416 2648 2759 
Q 2391 3103 1925 3103 
Q 1463 3103 1205 2759 
Q 947 2416 947 1791 
Q 947 1169 1205 825 
Q 1463 481 1925 481 
Q 2391 481 2648 825 
Q 2906 1169 2906 1791 
z
M 3481 434 
Q 3481 -459 3084 -895 
Q 2688 -1331 1869 -1331 
Q 1566 -1331 1297 -1286 
Q 1028 -1241 775 -1147 
L 775 -588 
Q 1028 -725 1275 -790 
Q 1522 -856 1778 -856 
Q 2344 -856 2625 -561 
Q 2906 -266 2906 331 
L 2906 616 
Q 2728 306 2450 153 
Q 2172 0 1784 0 
Q 1141 0 747 490 
Q 353 981 353 1791 
Q 353 2603 747 3093 
Q 1141 3584 1784 3584 
Q 2172 3584 2450 3431 
Q 2728 3278 2906 2969 
L 2906 3500 
L 3481 3500 
L 3481 434 
z
" transform="scale(0.015625)"/>
       <path id="DejaVuSans-13af" d="M 3431 3500 
L 3431 0 
L 2853 0 
L 2853 3053 
L 1275 3053 
L 1275 0 
L 697 0 
L 697 3053 
L 147 3053 
L 147 3500 
L 697 3500 
L 697 3744 
Q 697 4316 967 4589 
Q 1238 4863 1797 4863 
L 2375 4863 
L 2375 4384 
L 1825 4384 
Q 1516 4384 1395 4259 
Q 1275 4134 1275 3809 
L 1275 3500 
L 3431 3500 
z
M 2853 4856 
L 3431 4856 
L 3431 4128 
L 2853 4128 
L 2853 4856 
z
" transform="scale(0.015625)"/>
      </defs>
      <use xlink:href="#DejaVuSans-50"/>
      <use xlink:href="#DejaVuSans-44" transform="translate(97.40625 0)"/>
      <use xlink:href="#DejaVuSans-4a" transform="translate(158.6875 0)"/>
      <use xlink:href="#DejaVuSans-51" transform="translate(222.171875 0)"/>
      <use xlink:href="#DejaVuSans-4c" transform="translate(285.546875 0)"/>
      <use xlink:href="#DejaVuSans-13af" transform="translate(313.328125 0)"/>
      <use xlink:href="#DejaVuSans-46" transform="translate(376.3125 0)"/>
      <use xlink:href="#DejaVuSans-44" transform="translate(431.296875 0)"/>
      <use xlink:href="#DejaVuSans-57" transform="translate(492.578125 0)"/>
      <use xlink:href="#DejaVuSans-4c" transform="translate(531.78125 0)"/>
      <use xlink:href="#DejaVuSans-52" transform="translate(559.5625 0)"/>
      <use xlink:href="#DejaVuSans-51" transform="translate(620.75 0)"/>
     </g>
    </g>
    <g id="line2d_39">
     <defs>
      <path id="m37ecef24dc" d="M 0 3.464102 
C 0.91869 3.464102 1.799877 3.099102 2.44949 2.44949 
C 3.099102 1.799877 3.464102 0.91869 3.464102 0 
C 3.464102 -0.91869 3.099102 -1.799877 2.44949 -2.44949 
C 1.799877 -3.099102 0.91869 -3.464102 0 -3.464102 
C -0.91869 -3.464102 -1.799877 -3.099102 -2.44949 -2.44949 
C -3.099102 -1.799877 -3.464102 -0.91869 -3.464102 0 
C -3.464102 0.91869 -3.099102 1.799877 -2.44949 2.44949 
C -1.799877 3.099102 -0.91869 3.464102 0 3.464102 
z
" style="stroke: #ffffff; stroke-width: 0.554256"/>
     </defs>
     <g>
      <use xlink:href="#m37ecef24dc" x="62.488281" y="44.7975" style="fill: #1f77b4; stroke: #ffffff; stroke-width: 0.554256"/>
     </g>
    </g>
    <g id="text_19">
     <!-- 50X -->
     <g transform="translate(76.888281 47.5975) scale(0.08 -0.08)">
      <defs>
       <path id="DejaVuSans-3b" d="M 403 4666 
L 1081 4666 
L 2241 2931 
L 3406 4666 
L 4084 4666 
L 2584 2425 
L 4184 0 
L 3506 0 
L 2194 1984 
L 872 0 
L 191 0 
L 1856 2491 
L 403 4666 
z
" transform="scale(0.015625)"/>
      </defs>
      <use xlink:href="#DejaVuSans-18"/>
      <use xlink:href="#DejaVuSans-13" transform="translate(63.625 0)"/>
      <use xlink:href="#DejaVuSans-3b" transform="translate(127.25 0)"/>
     </g>
    </g>
    <g id="line2d_40">
     <defs>
      <path id="m57cd7a98d3" d="M 0 3.464102 
C 0.91869 3.464102 1.799877 3.099102 2.44949 2.44949 
C 3.099102 1.799877 3.464102 0.91869 3.464102 0 
C 3.464102 -0.91869 3.099102 -1.799877 2.44949 -2.44949 
C 1.799877 -3.099102 0.91869 -3.464102 0 -3.464102 
C -0.91869 -3.464102 -1.799877 -3.099102 -2.44949 -2.44949 
C -3.099102 -1.799877 -3.464102 -0.91869 -3.464102 0 
C -3.464102 0.91869 -3.099102 1.799877 -2.44949 2.44949 
C -1.799877 3.099102 -0.91869 3.464102 0 3.464102 
z
" style="stroke: #ffffff; stroke-width: 0.554256"/>
     </defs>
     <g>
      <use xlink:href="#m57cd7a98d3" x="62.488281" y="56.798125" style="fill: #ff7f0e; stroke: #ffffff; stroke-width: 0.554256"/>
     </g>
    </g>
    <g id="text_20">
     <!-- 20X -->
     <g transform="translate(76.888281 59.598125) scale(0.08 -0.08)">
      <use xlink:href="#DejaVuSans-15"/>
      <use xlink:href="#DejaVuSans-13" transform="translate(63.625 0)"/>
      <use xlink:href="#DejaVuSans-3b" transform="translate(127.25 0)"/>
     </g>
    </g>
    <g id="line2d_41"/>
    <g id="text_21">
     <!-- hardness_scale -->
     <g transform="translate(76.888281 71.59875) scale(0.08 -0.08)">
      <defs>
       <path id="DejaVuSans-4b" d="M 3513 2113 
L 3513 0 
L 2938 0 
L 2938 2094 
Q 2938 2591 2744 2837 
Q 2550 3084 2163 3084 
Q 1697 3084 1428 2787 
Q 1159 2491 1159 1978 
L 1159 0 
L 581 0 
L 581 4863 
L 1159 4863 
L 1159 2956 
Q 1366 3272 1645 3428 
Q 1925 3584 2291 3584 
Q 2894 3584 3203 3211 
Q 3513 2838 3513 2113 
z
" transform="scale(0.015625)"/>
       <path id="DejaVuSans-47" d="M 2906 2969 
L 2906 4863 
L 3481 4863 
L 3481 0 
L 2906 0 
L 2906 525 
Q 2725 213 2448 61 
Q 2172 -91 1784 -91 
Q 1150 -91 751 415 
Q 353 922 353 1747 
Q 353 2572 751 3078 
Q 1150 3584 1784 3584 
Q 2172 3584 2448 3432 
Q 2725 3281 2906 2969 
z
M 947 1747 
Q 947 1113 1208 752 
Q 1469 391 1925 391 
Q 2381 391 2643 752 
Q 2906 1113 2906 1747 
Q 2906 2381 2643 2742 
Q 2381 3103 1925 3103 
Q 1469 3103 1208 2742 
Q 947 2381 947 1747 
z
" transform="scale(0.015625)"/>
       <path id="DejaVuSans-42" d="M 3263 -1063 
L 3263 -1509 
L -63 -1509 
L -63 -1063 
L 3263 -1063 
z
" transform="scale(0.015625)"/>
      </defs>
      <use xlink:href="#DejaVuSans-4b"/>
      <use xlink:href="#DejaVuSans-44" transform="translate(63.375 0)"/>
      <use xlink:href="#DejaVuSans-55" transform="translate(124.65625 0)"/>
      <use xlink:href="#DejaVuSans-47" transform="translate(164.015625 0)"/>
      <use xlink:href="#DejaVuSans-51" transform="translate(227.5 0)"/>
      <use xlink:href="#DejaVuSans-48" transform="translate(290.875 0)"/>
      <use xlink:href="#DejaVuSans-56" transform="translate(352.40625 0)"/>
      <use xlink:href="#DejaVuSans-56" transform="translate(404.5 0)"/>
      <use xlink:href="#DejaVuSans-42" transform="translate(456.59375 0)"/>
      <use xlink:href="#DejaVuSans-56" transform="translate(506.59375 0)"/>
      <use xlink:href="#DejaVuSans-46" transform="translate(558.6875 0)"/>
      <use xlink:href="#DejaVuSans-44" transform="translate(613.671875 0)"/>
      <use xlink:href="#DejaVuSans-4f" transform="translate(674.953125 0)"/>
      <use xlink:href="#DejaVuSans-48" transform="translate(702.734375 0)"/>
     </g>
    </g>
    <g id="line2d_42">
     <defs>
      <path id="mfc956d15af" d="M 0 3.464102 
C 0.91869 3.464102 1.799877 3.099102 2.44949 2.44949 
C 3.099102 1.799877 3.464102 0.91869 3.464102 0 
C 3.464102 -0.91869 3.099102 -1.799877 2.44949 -2.44949 
C 1.799877 -3.099102 0.91869 -3.464102 0 -3.464102 
C -0.91869 -3.464102 -1.799877 -3.099102 -2.44949 -2.44949 
C -3.099102 -1.799877 -3.464102 -0.91869 -3.464102 0 
C -3.464102 0.91869 -3.099102 1.799877 -2.44949 2.44949 
C -1.799877 3.099102 -0.91869 3.464102 0 3.464102 
z
" style="stroke: #ffffff; stroke-width: 0.554256"/>
     </defs>
     <g>
      <use xlink:href="#mfc956d15af" x="62.488281" y="80.799375" style="fill: #333333; stroke: #ffffff; stroke-width: 0.554256"/>
     </g>
    </g>
    <g id="text_22">
     <!-- HV 0.05 -->
     <g transform="translate(76.888281 83.599375) scale(0.08 -0.08)">
      <defs>
       <path id="DejaVuSans-2b" d="M 628 4666 
L 1259 4666 
L 1259 2753 
L 3553 2753 
L 3553 4666 
L 4184 4666 
L 4184 0 
L 3553 0 
L 3553 2222 
L 1259 2222 
L 1259 0 
L 628 0 
L 628 4666 
z
" transform="scale(0.015625)"/>
       <path id="DejaVuSans-11" d="M 684 794 
L 1344 794 
L 1344 0 
L 684 0 
L 684 794 
z
" transform="scale(0.015625)"/>
      </defs>
      <use xlink:href="#DejaVuSans-2b"/>
      <use xlink:href="#DejaVuSans-39" transform="translate(75.203125 0)"/>
      <use xlink:href="#DejaVuSans-3" transform="translate(143.609375 0)"/>
      <use xlink:href="#DejaVuSans-13" transform="translate(175.390625 0)"/>
      <use xlink:href="#DejaVuSans-11" transform="translate(239.015625 0)"/>
      <use xlink:href="#DejaVuSans-13" transform="translate(270.796875 0)"/>
      <use xlink:href="#DejaVuSans-18" transform="translate(334.421875 0)"/>
     </g>
    </g>
    <g id="line2d_43">
     <defs>
      <path id="mbd443488fc" d="M -1.732051 3.464102 
L 0 1.732051 
L 1.732051 3.464102 
L 3.464102 1.732051 
L 1.732051 0 
L 3.464102 -1.732051 
L 1.732051 -3.464102 
L 0 -1.732051 
L -1.732051 -3.464102 
L -3.464102 -1.732051 
L -1.732051 0 
L -3.464102 1.732051 
z
" style="stroke: #ffffff; stroke-width: 0.554256; stroke-linejoin: miter"/>
     </defs>
     <g>
      <use xlink:href="#mbd443488fc" x="62.488281" y="92.8" style="fill: #333333; stroke: #ffffff; stroke-width: 0.554256; stroke-linejoin: miter"/>
     </g>
    </g>
    <g id="text_23">
     <!-- HV 0.5 -->
     <g transform="translate(76.888281 95.6) scale(0.08 -0.08)">
      <use xlink:href="#DejaVuSans-2b"/>
      <use xlink:href="#DejaVuSans-39" transform="translate(75.203125 0)"/>
      <use xlink:href="#DejaVuSans-3" transform="translate(143.609375 0)"/>
      <use xlink:href="#DejaVuSans-13" transform="translate(175.390625 0)"/>
      <use xlink:href="#DejaVuSans-11" transform="translate(239.015625 0)"/>
      <use xlink:href="#DejaVuSans-18" transform="translate(270.796875 0)"/>
     </g>
    </g>
    <g id="line2d_44">
     <defs>
      <path id="m51d75433cd" d="M -2.44949 -2.44949 
L -2.44949 2.44949 
L 2.44949 2.44949 
L 2.44949 -2.44949 
z
" style="stroke: #ffffff; stroke-width: 0.554256; stroke-linejoin: miter"/>
     </defs>
     <g>
      <use xlink:href="#m51d75433cd" x="62.488281" y="104.800625" style="fill: #333333; stroke: #ffffff; stroke-width: 0.554256; stroke-linejoin: miter"/>
     </g>
    </g>
    <g id="text_24">
     <!-- HV 1 -->
     <g transform="translate(76.888281 107.600625) scale(0.08 -0.08)">
      <use xlink:href="#DejaVuSans-2b"/>
      <use xlink:href="#DejaVuSans-39" transform="translate(75.203125 0)"/>
      <use xlink:href="#DejaVuSans-3" transform="translate(143.609375 0)"/>
      <use xlink:href="#DejaVuSans-14" transform="translate(175.390625 0)"/>
     </g>
    </g>
    <g id="line2d_45">
     <defs>
      <path id="mb6e613d492" d="M -1.154701 3.464102 
L 1.154701 3.464102 
L 1.154701 1.154701 
L 3.464102 1.154701 
L 3.464102 -1.154701 
L 1.154701 -1.154701 
L 1.154701 -3.464102 
L -1.154701 -3.464102 
L -1.154701 -1.154701 
L -3.464102 -1.154701 
L -3.464102 1.154701 
L -1.154701 1.154701 
z
" style="stroke: #ffffff; stroke-width: 0.554256; stroke-linejoin: miter"/>
     </defs>
     <g>
      <use xlink:href="#mb6e613d492" x="62.488281" y="116.80125" style="fill: #333333; stroke: #ffffff; stroke-width: 0.554256; stroke-linejoin: miter"/>
     </g>
    </g>
    <g id="text_25">
     <!-- HV 2 -->
     <g transform="translate(76.888281 119.60125) scale(0.08 -0.08)">
      <use xlink:href="#DejaVuSans-2b"/>
      <use xlink:href="#DejaVuSans-39" transform="translate(75.203125 0)"/>
      <use xlink:href="#DejaVuSans-3" transform="translate(143.609375 0)"/>
      <use xlink:href="#DejaVuSans-15" transform="translate(175.390625 0)"/>
     </g>
    </g>
    <g id="line2d_46">
     <path d="M 54.488281 128.801875 
L 62.488281 128.801875 
L 70.488281 128.801875 
" style="fill: none; stroke: #404040; stroke-linecap: square"/>
    </g>
    <g id="text_26">
     <!-- identity -->
     <g transform="translate(76.888281 131.601875) scale(0.08 -0.08)">
      <defs>
       <path id="DejaVuSans-5c" d="M 2059 -325 
Q 1816 -950 1584 -1140 
Q 1353 -1331 966 -1331 
L 506 -1331 
L 506 -850 
L 844 -850 
Q 1081 -850 1212 -737 
Q 1344 -625 1503 -206 
L 1606 56 
L 191 3500 
L 800 3500 
L 1894 763 
L 2988 3500 
L 3597 3500 
L 2059 -325 
z
" transform="scale(0.015625)"/>
      </defs>
      <use xlink:href="#DejaVuSans-4c"/>
      <use xlink:href="#DejaVuSans-47" transform="translate(27.78125 0)"/>
      <use xlink:href="#DejaVuSans-48" transform="translate(91.265625 0)"/>
      <use xlink:href="#DejaVuSans-51" transform="translate(152.796875 0)"/>
      <use xlink:href="#DejaVuSans-57" transform="translate(216.171875 0)"/>
      <use xlink:href="#DejaVuSans-4c" transform="translate(255.375 0)"/>
      <use xlink:href="#DejaVuSans-57" transform="translate(283.15625 0)"/>
      <use xlink:href="#DejaVuSans-5c" transform="translate(322.359375 0)"/>
     </g>
    </g>
   </g>
  </g>
 </g>
 <defs>
  <clipPath id="p381291437f">
   <rect x="47.288281" y="22.318125" width="368.28" height="288.288"/>
  </clipPath>
 </defs>
</svg>
